<?xml version="1.0" encoding="utf-8"?>
<!-- Generator: Adobe Illustrator 26.2.1, SVG Export Plug-In . SVG Version: 6.00 Build 0)  -->
<svg version="1.1" xmlns="http://www.w3.org/2000/svg" xmlns:xlink="http://www.w3.org/1999/xlink" x="0px" y="0px"
	 viewBox="0 0 714 714" style="enable-background:new 0 0 714 714;" xml:space="preserve">
<g id="Vintage_Postal_Stamp_-_Blush_Palette">
</g>
<g id="Vintage_Postal_Stamp_-_Diamond_Ring">
</g>
<g id="Vintage_Postal_Stamp_-_Perfume">
</g>
<g id="Vintage_Postal_Stamp_-_Make-up_Brush">
</g>
<g id="Vintage_Postal_Stamp_-_Pouch">
</g>
<g id="Vintage_Postal_Stamp_-_Lipstick">
</g>
<g id="Spring_Daisy_Icon">
	<path d="M569.114502,322.189209c-14.4465332-10.9292603-33.0625-16.2018433-51.2077637-18.6766968
		c-17.2458496-2.3521729-34.8291016-2.5743408-51.9873047-0.7478638
		c6.7497559-8.2138062,13.0532227-16.7819214,18.9760742-25.5334473
		c11.0014648-16.255249,21.3232422-33.3006592,30.1066895-50.6882324c7.3098145-14.47052,12.7114258-31.572937,3.5480957-44.743103
		c-9.8005371-14.0862427-28.9470215-16.274292-45.9528809-11.2824097
		c-17.3813477,5.1021118-32.6999512,16.921936-45.4899902,30.0289307
		c-12.7709961,13.0878296-23.8798828,27.8721924-32.8649902,43.5910034
		c-4.6027832,8.0517578-8.6845703,16.3733521-12.189209,24.8734741
		c-0.8588867-14.5374756-3.2695312-28.9954834-6.6057129-43.1478882
		c-4.0454102-17.1613159-9.1315918-34.3763428-15.5324707-50.8155518
		c-5.3271484-13.6810913-13.8730469-27.7702026-29.7114258-30.059082
		c-16.9401855-2.4480591-31.8178711,8.4962769-40.0444336,22.5228882
		c-8.4086914,14.3363037-10.5524902,31.5177612-10.0136719,47.8737183
		c0.4353027,13.2210693,2.4282227,26.4320679,5.8562012,39.2254028c-2.4533691-2.5930176-4.9494629-5.1417236-7.4794922-7.647644
		c-12.9672852-12.8444214-26.8425293-25.177124-41.3952637-36.1251831
		c-12.1113281-9.111145-27.1652832-16.8515015-41.8022461-10.3518066
		c-15.6552734,6.9516602-22.114502,24.5144653-21.2463379,41.2039795
		c0.887207,17.0580444,8.644043,33.2425537,18.2043457,47.2647705
		c9.5463867,14.0016479,21.0883789,26.7151489,34.0056152,37.5895386c3.0578613,2.5742188,6.1984863,5.0499268,9.4091797,7.4282227
		c-17.619873,2.1511841-34.947998,6.5889893-51.7106934,12.2491455
		c-17.2924805,5.8390503-34.534668,12.7189941-50.842041,20.8248901
		c-13.5715332,6.7460938-27.2358398,16.7371216-27.9821777,32.7350464
		c-0.798584,17.1106567,12.0092773,30.753479,27.3193359,37.4542236c15.6479492,6.8486938,33.5925293,7.1646118,50.4118652,4.899292
		c16.7946777-2.2620239,33.3317871-6.8853149,48.8408203-13.5621338
		c7.4260254-3.1969604,14.6496582-6.8651123,21.5993652-10.9677734
		c-8.9645996,10.088501-17.0466309,20.9715576-24.4335938,32.2119751
		c-10.0239258,15.2529297-19.3666992,31.2945557-27.2182617,47.7260742
		c-6.5339355,13.6748657-11.1418457,29.9628906-1.8740234,43.0241699c9.9125977,13.9697876,28.40625,16.8253784,44.59375,12.6713867
		c16.545166-4.2456665,30.8745117-15.0519409,42.7272949-27.1983032
		c11.8354492-12.12854,22.0131836-25.958374,30.1159668-40.7722778c1.6706543-3.0541992,3.2541504-6.1558228,4.7568359-9.295166
		c-0.3747559,4.7175903-0.5805664,9.4514771-0.6064453,14.1864624c-0.0917969,16.8848877,2.1081543,33.9146118,6.5825195,50.2595825
		c4.4812012,16.3689575,11.777832,32.7659912,24.1923828,44.49823
		c12.1459961,11.4787598,29.7067871,17.9439087,45.1477051,10.5285034
		c14.4370117-6.9331665,18.3000488-23.4136963,19.2124023-38.5419312
		c1.0957031-18.1779785,0.697998-36.7376709-0.6777344-54.9376221c-1.0161133-13.4432373-2.8173828-26.9106445-5.7817383-40.1091919
		c2.9909668,3.6739502,6.1152344,7.243042,9.3708496,10.6881714c11.5974121,12.2722778,24.9519043,23.0661011,39.4780273,31.7935791
		c14.5473633,8.7403564,31.1503906,15.5559692,48.230957,15.4634399
		c16.7119141-0.0905151,33.8754883-7.5463867,39.9177246-23.574585
		c5.6496582-14.9858398-2.9416504-29.5709839-12.7324219-41.1396484
		c-11.7648926-13.9008179-24.8730469-27.0459595-38.4399414-39.2553101
		c-7.810791-7.0291138-15.9768066-13.7393799-24.5300293-19.9081421c6.4553223,0.0663452,12.9033203-0.055603,19.3222656-0.3293457
		c19.6103516-0.8363647,39.4506836-2.6893921,58.6508789-5.9820557
		c15.9785156-2.7402954,32.9362793-8.5805664,38.0639648-23.7833252
		C592.8881836,349.569519,583.2490234,332.8823242,569.114502,322.189209z M353.5393066,436.8306885
		c-34.4726562,0-62.4182129-27.9456177-62.4182129-62.4182739s27.9455566-62.4182739,62.4182129-62.4182739
		s62.4182129,27.9456177,62.4182129,62.4182739S388.0119629,436.8306885,353.5393066,436.8306885z"/>
</g>
<g id="Spring_Shovel_Icon">
</g>
<g id="Spring_Beehive_Icon">
</g>
<g id="Spring_Pinwheel_Icon">
</g>
</svg>
